<svg preserveAspectRatio="none" width="100%" height="100%" overflow="visible" style="display: block;" viewBox="0 0 57.9998 58" fill="none" xmlns="http://www.w3.org/2000/svg">
<g id="frontend">
<path id="Vector" d="M30.3234 0.233603C36.2605 -0.173288 42.4281 2.57478 46.8635 6.25557C47.0438 6.40364 47.2242 6.5517 47.41 6.70425C51.8137 10.4311 55.1029 15.0543 56.7416 20.5299C56.8269 20.7875 56.9122 21.0451 57.0001 21.3105C57.2938 22.4513 57.4789 23.6055 57.6605 24.7675C57.7014 25.0019 57.7423 25.2362 57.7844 25.4776C58.7076 32.8987 56.6469 40.7066 51.9174 46.625C51.2869 47.3826 50.6404 48.1261 49.9827 48.8615C49.571 49.3224 49.1698 49.7856 48.7731 50.2581C48.2305 50.8756 47.8129 51.1349 47.0932 51.5318C46.765 51.7746 46.4399 52.0213 46.1169 52.2706C43.2901 54.4313 43.2901 54.4313 42.4987 54.4313C42.4229 54.5785 42.3471 54.7257 42.269 54.8774C41.8641 55.0847 41.8641 55.0847 41.3403 55.2956C41.1503 55.3726 40.9603 55.4497 40.7646 55.5291C40.5646 55.6084 40.3645 55.6878 40.1584 55.7695C39.9628 55.8489 39.7672 55.9282 39.5657 56.01C36.5699 57.2157 33.5628 57.83 30.3234 57.9999C30.3992 57.7791 30.475 57.5583 30.5531 57.3308C31.122 57.1095 31.122 57.1095 31.8453 56.9126C33.3006 56.4752 34.2934 55.9297 35.3773 54.8774C35.626 54.682 35.8749 54.4869 36.1239 54.2919C37.1879 53.4123 38.147 52.386 38.5934 51.0858C38.745 51.0858 38.8967 51.0858 39.0529 51.0858C39.1133 50.9273 39.1737 50.7689 39.2359 50.6057C39.5123 49.9706 39.5123 49.9706 39.8749 49.3703C40.7661 47.8844 41.028 46.9602 40.6125 45.2825C40.5228 44.9534 40.5228 44.9534 40.4312 44.6177C40.3414 44.1537 40.255 43.6891 40.1728 43.2238C40.106 42.8706 40.0391 42.5174 39.9718 42.1643C39.8166 42.1364 39.6614 42.1086 39.5016 42.0798C38.7111 41.9184 37.9378 41.7123 37.1577 41.5092C31.292 40.0555 25.3383 40.3913 19.5263 41.9413C18.8385 42.0967 18.149 42.2422 17.4588 42.3874C16.8834 41.0005 16.4997 39.6221 16.1666 38.1636C16.1169 37.9545 16.0671 37.7453 16.0159 37.5298C15.7515 36.3901 15.5471 35.2712 15.4448 34.1067C15.3992 33.6389 15.3992 33.6389 15.1616 33.0199C15.2249 32.5718 15.2999 32.1251 15.3913 31.6816C15.2586 31.6356 15.126 31.5896 14.9893 31.5423C14.2393 31.0973 13.9523 30.6579 13.5535 29.8974C13.3816 29.1866 13.3604 28.5985 13.5535 27.89C13.899 27.498 13.899 27.498 14.3288 27.1094C15.5442 25.9223 15.4675 24.3574 15.5821 22.7784C15.7114 21.2357 16.0157 19.7586 16.5399 18.2995C16.6261 17.7805 16.7051 17.2602 16.7696 16.7383C16.9213 16.7383 17.0729 16.7383 17.2291 16.7383C17.3049 16.3702 17.3807 16.0022 17.4588 15.6231C18.4727 15.8395 19.4857 16.0582 20.4955 16.2922C26.6162 17.6933 32.4969 17.7762 38.5683 16.0962C39.337 15.8845 40.0985 15.7321 40.8907 15.6231C41.6906 17.5193 42.1238 19.414 42.4987 21.422C42.56 21.692 42.56 21.692 42.6226 21.9674C42.7285 22.5372 42.7285 22.5372 42.8029 23.3875C42.8167 23.5399 42.8305 23.6923 42.8447 23.8493C42.8725 24.1637 42.8958 24.4786 42.9147 24.7937C42.9788 25.4342 43.052 25.958 43.5026 26.4479C43.8456 26.7199 44.2054 26.9716 44.5663 27.2209C45.1277 28.0741 45.075 28.8745 44.9378 29.8477C44.7035 30.6667 44.2701 31.0918 43.6474 31.6816C43.4957 31.7553 43.3441 31.8289 43.1879 31.9047C43.0888 32.3412 43.0888 32.3412 43.0587 32.8526C42.9907 33.5915 42.8971 34.3022 42.7285 35.0272C42.9085 35.0962 43.0886 35.1652 43.2741 35.2363C43.8771 35.4733 43.8771 35.4733 44.3365 35.6963C44.642 35.1032 44.5723 34.5779 44.5519 33.9277C44.567 33.4426 44.6735 33.0434 44.796 32.5738C44.8633 31.9322 44.912 31.2906 44.9611 30.6475C45.0257 30.1204 45.0257 30.1204 45.2554 29.8974C45.9682 29.8776 46.6757 29.8717 47.3885 29.8756C47.6023 29.8759 47.8161 29.8762 48.0364 29.8765C48.7223 29.8778 49.4081 29.8806 50.094 29.8834C50.5578 29.8845 51.0216 29.8856 51.4854 29.8865C52.6249 29.8889 53.7643 29.8928 54.9038 29.8974C54.9038 29.3085 54.9038 28.7197 54.9038 28.1131C51.6441 28.1131 48.3843 28.1131 45.0257 28.1131C44.9499 26.4202 44.8741 24.7274 44.796 22.9833C44.6444 22.9097 44.4927 22.836 44.3365 22.7602C44.2656 22.3525 44.2656 22.3525 44.236 21.8123C44.1386 20.5963 43.8666 19.4544 43.5603 18.2734C43.4176 17.6304 43.4176 17.6304 43.4176 16.7383C43.266 16.6646 43.1144 16.591 42.9582 16.5152C42.8128 16.1031 42.8128 16.1031 42.6998 15.6091C42.6613 15.4455 42.6228 15.2819 42.5831 15.1134C42.5553 14.9872 42.5274 14.861 42.4987 14.7309C43.0246 14.4696 43.5512 14.2096 44.0781 13.9503C44.2276 13.8758 44.3772 13.8014 44.5313 13.7247C45.6628 13.1697 45.6628 13.1697 46.1743 13.1697C46.2501 12.9489 46.3259 12.7281 46.4041 12.5006C46.9927 12.2357 46.9927 12.2357 47.5527 12.0545C47.5527 11.2144 47.4986 10.959 47.0932 10.2702C46.8386 10.4099 46.5839 10.5497 46.3215 10.6936C45.9853 10.8778 45.6491 11.0619 45.3129 11.246C45.1453 11.338 44.9776 11.43 44.805 11.5248C44.6421 11.6139 44.4792 11.703 44.3114 11.7949C44.1622 11.8766 44.0131 11.9584 43.8594 12.0426C43.7136 12.1201 43.5678 12.1977 43.4176 12.2775C43.2618 12.3611 43.106 12.4446 42.9454 12.5307C42.4987 12.7236 42.4987 12.7236 41.8096 12.7236C41.7484 12.5946 41.6872 12.4655 41.6242 12.3326C39.8686 8.346 39.8686 8.34599 37.2151 4.91735C36.955 4.62598 36.6967 4.33316 36.4398 4.03915C35.6473 3.15617 34.9358 2.39543 33.7692 2.01789C33.7692 1.87069 33.7692 1.72348 33.7692 1.57182C33.4105 1.46429 33.0515 1.35758 32.6924 1.2512C32.4925 1.19169 32.2926 1.13218 32.0867 1.07086C31.5018 0.910863 30.9206 0.78728 30.3234 0.679675C30.3234 0.532471 30.3234 0.385267 30.3234 0.233603ZM31.472 20.0838C30.8739 20.8694 30.582 21.6977 30.2865 22.6245C30.2419 22.7629 30.1974 22.9012 30.1515 23.0437C30.0056 23.4982 29.862 23.9534 29.7185 24.4086C29.6171 24.7272 29.5157 25.0459 29.4141 25.3645C29.2019 26.0316 28.9908 26.6991 28.7805 27.3668C28.5122 28.2181 28.2409 29.0684 27.9686 29.9186C27.7584 30.5764 27.5499 31.2348 27.3419 31.8933C27.2427 32.2068 27.1428 32.5201 27.0424 32.8333C26.5259 34.447 26.0379 36.0053 25.9586 37.7036C26.2036 37.9927 26.2036 37.9927 26.777 37.9406C26.9618 37.936 27.1466 37.9314 27.3369 37.9267C27.4863 37.6111 27.6344 37.295 27.782 36.9787C27.8647 36.8028 27.9473 36.6268 28.0324 36.4456C28.2349 35.9687 28.3596 35.5265 28.4856 35.0272C28.5835 34.7011 28.6835 34.3755 28.7853 34.0505C28.8436 33.8632 28.902 33.6759 28.9621 33.4829C29.0828 33.0966 29.2037 32.7104 29.3246 32.3242C29.6282 31.3489 29.919 30.3728 30.187 29.3877C30.5978 27.91 31.1074 26.4668 31.6156 25.0185C31.8011 24.4895 31.9859 23.9604 32.1701 23.4311C32.2512 23.2002 32.3322 22.9694 32.4157 22.7316C32.6039 22.1433 32.7673 21.5867 32.8503 20.9759C32.5914 20.4485 32.5914 20.4485 32.1612 20.0838C31.9337 20.0838 31.7063 20.0838 31.472 20.0838ZM22.1987 23.2359C22.0086 23.3825 21.8184 23.5292 21.6226 23.6802C21.2956 23.9278 21.2956 23.9278 20.9621 24.1803C20.7131 24.376 20.4643 24.5717 20.2155 24.7675C19.919 24.9961 19.6223 25.2243 19.3253 25.4523C18.5952 26.0147 17.8667 26.5787 17.1468 27.1534C16.8083 27.4142 16.4514 27.6521 16.093 27.8866C15.5637 28.3098 15.5637 28.3098 15.4676 28.9878C15.6746 29.9139 16.1847 30.294 16.9276 30.8453C17.1274 31.0007 17.1274 31.0007 17.3313 31.1592C17.6116 31.376 17.8936 31.5908 18.1769 31.8038C18.6011 32.123 19.0201 32.4478 19.4384 32.7742C19.7019 32.9772 19.9657 33.1799 20.2299 33.3823C20.3528 33.4772 20.4758 33.5722 20.6024 33.67C21.2214 34.1335 21.729 34.4753 22.5127 34.5811C22.5127 34.7283 22.5127 34.8755 22.5127 35.0272C23.0813 34.9168 23.0813 34.9168 23.6614 34.8041C23.8692 34.2986 23.8692 34.2986 23.8911 33.689C23.4704 33.15 23.4704 33.15 22.8573 32.6853C22.6465 32.5131 22.4356 32.3409 22.2184 32.1634C20.9934 31.0754 20.9934 31.0754 19.5263 30.5665C19.4505 30.3457 19.3747 30.1249 19.2966 29.8974C18.8379 29.5215 18.8379 29.5215 18.3777 29.2283C18.6308 28.491 18.7632 28.3862 19.3854 27.9475C19.5443 27.834 19.7032 27.7204 19.8669 27.6034C20.034 27.4864 20.2012 27.3694 20.3734 27.2488C22.5286 25.9361 22.5286 25.9361 23.8624 24.0287C23.8718 23.8309 23.8813 23.6331 23.8911 23.4293C23.0651 22.9829 23.0651 22.9829 22.1987 23.2359ZM35.1476 22.9833C34.6446 23.3885 34.6446 23.3885 34.584 23.9486C34.7365 24.8213 35.1859 25.0644 35.8942 25.6039C36.0165 25.6985 36.1389 25.793 36.265 25.8905C36.655 26.1896 37.0491 26.4829 37.4448 26.7749C37.5772 26.8731 37.7095 26.9714 37.8459 27.0726C38.6256 27.6498 39.4111 28.2189 40.2015 28.7822C39.8479 29.5338 39.5074 29.8563 38.8232 30.3434C38.8232 30.4906 38.8232 30.6378 38.8232 30.7895C38.6879 30.8158 38.5526 30.842 38.4133 30.8691C37.5585 31.11 36.9359 31.6475 36.2388 32.1695C36.0149 32.3267 36.0149 32.3267 35.7865 32.4871C34.8778 33.1554 34.8778 33.1554 34.5768 34.2021C34.6234 34.7838 34.6234 34.7838 34.9178 35.0272C35.5672 35.0906 35.9492 35.0933 36.5197 34.7716C36.7329 34.5958 36.7329 34.5958 36.9504 34.4165C37.1084 34.2887 37.2663 34.1609 37.4291 34.0292C37.5906 33.8939 37.7522 33.7586 37.9186 33.6193C38.2419 33.3552 38.5652 33.0912 38.8887 32.8273C39.0305 32.7094 39.1724 32.5914 39.3186 32.4698C39.7421 32.1277 39.7421 32.1277 40.2548 31.7773C40.3889 31.6721 40.5229 31.567 40.6609 31.4586C40.6609 31.3114 40.6609 31.1642 40.6609 31.0125C40.7889 30.9941 40.9168 30.9757 41.0486 30.9568C41.774 30.7284 42.1895 30.4207 42.7285 29.8974C43.0338 29.2526 43.0338 29.2526 42.9582 28.5591C42.1625 27.6888 41.2468 26.9819 40.302 26.273C40.1627 26.168 40.0235 26.063 39.88 25.9548C39.593 25.7389 39.3057 25.5235 39.0181 25.3085C38.609 25.0023 38.2019 24.6938 37.7948 24.3851C37.549 24.2011 37.3032 24.0172 37.0572 23.8336C36.7289 23.5873 36.7289 23.5873 36.394 23.3361C35.8514 22.9223 35.8514 22.9223 35.1476 22.9833ZM40.6609 36.1424C40.6876 36.4492 40.7169 36.7558 40.7471 37.0624C40.7631 37.2332 40.7791 37.4039 40.7956 37.5799C40.8768 38.1668 40.8768 38.1668 41.1088 38.772C41.3377 39.451 41.4942 40.1055 41.6301 40.8069C41.6784 41.0502 41.7266 41.2934 41.7764 41.544C41.8754 42.0522 41.9741 42.5604 42.0725 43.0687C42.1449 43.4327 42.1449 43.4327 42.2188 43.804C42.2616 44.0244 42.3043 44.2448 42.3484 44.4719C42.4887 45.0244 42.6726 45.4617 42.9582 45.9559C43.0855 45.7788 43.2129 45.6017 43.3441 45.4193C43.5105 45.1916 43.6769 44.9638 43.8484 44.7292C44.0136 44.5015 44.1789 44.2738 44.3491 44.0392C44.4966 43.8621 44.644 43.685 44.796 43.5025C44.9476 43.5025 45.0992 43.5025 45.2554 43.5025C45.5606 43.8506 45.5606 43.8506 45.9033 44.332C46.0877 44.5886 46.0877 44.5886 46.2757 44.8503C46.4034 45.0312 46.531 45.212 46.6625 45.3983C46.7919 45.5792 46.9213 45.76 47.0546 45.9464C47.3752 46.3947 47.6943 46.844 48.0121 47.2942C48.467 47.0733 48.9218 46.8525 49.3905 46.625C49.0118 45.5023 48.3322 44.6119 47.6388 43.6559C47.5204 43.4907 47.4019 43.3255 47.2799 43.1554C46.9889 42.75 46.697 42.3453 46.4041 41.9413C46.6108 41.914 46.8174 41.8867 47.0304 41.8585C47.7113 41.7315 48.1825 41.5722 48.7874 41.2582C49.0246 41.1371 49.0246 41.1371 49.2666 41.0134C49.4416 40.9207 49.4416 40.9207 49.6202 40.8261C48.6334 39.9858 47.564 39.4365 46.4041 38.8606C46.0142 38.6647 45.6245 38.4687 45.2348 38.2725C45.0438 38.1767 44.8529 38.0808 44.6561 37.9821C43.6503 37.4722 42.6581 36.9385 41.6651 36.4055C41.1532 36.1092 41.1532 36.1092 40.6609 36.1424Z" fill="var(--fill-0, #003399)"/>
<path id="Vector_2" d="M27.5669 0.0106897C27.6806 0.341898 27.6806 0.341898 27.7966 0.679797C27.6574 0.712573 27.5183 0.745349 27.3749 0.779118C25.3368 1.30881 23.5321 2.09578 22.2832 3.8023C22.0194 3.99637 22.0194 3.99637 21.7502 4.19435C21.0492 4.76387 20.6007 5.35568 20.0865 6.08842C19.9966 6.21614 19.9067 6.34387 19.8141 6.47546C19.1663 7.41066 18.6499 8.36505 18.1482 9.37819C17.9208 9.4886 17.9208 9.4886 17.6888 9.60123C17.496 10.0349 17.496 10.0349 17.3442 10.5491C17.1049 11.2885 16.8491 12.0083 16.5401 12.7237C15.362 12.6116 14.5045 12.1976 13.5107 11.6086C12.4252 10.9691 12.4252 10.9691 11.2565 10.4934C10.6879 11.1558 10.6879 11.1558 10.1079 11.8316C10.2369 11.8932 10.3659 11.9549 10.4989 12.0184C11.0465 12.2874 11.584 12.5702 12.1215 12.8579C12.3259 12.9672 12.5302 13.0764 12.7407 13.189C12.9522 13.3022 13.1636 13.4155 13.3814 13.5322C13.5964 13.6472 13.8114 13.7622 14.0329 13.8807C14.5624 14.164 15.0919 14.4475 15.6212 14.7311C15.3583 15.9244 15.0642 17.0984 14.7167 18.2717C14.3511 19.562 14.0833 20.8531 13.8696 22.1749C13.8441 22.3321 13.8187 22.4893 13.7925 22.6513C13.5135 24.4659 13.3104 26.2908 13.0943 28.1132C11.7941 28.1505 10.4938 28.1864 9.19357 28.2207C8.751 28.2327 8.30846 28.245 7.86592 28.2578C7.23073 28.276 6.59551 28.2928 5.96026 28.3092C5.76164 28.3153 5.56301 28.3213 5.35837 28.3275C3.95763 28.3616 3.95763 28.3616 3.44586 28.1132C3.52167 28.6284 3.59748 29.1436 3.67559 29.6745C8.33784 29.7849 8.33784 29.7849 13.0943 29.8975C13.5537 32.797 13.5537 32.797 13.6255 33.9958C13.7308 35.3836 14.0267 36.7226 14.329 38.0801C14.3771 38.2974 14.4252 38.5148 14.4747 38.7387C14.7454 39.9189 15.0635 41.0448 15.5141 42.173C15.6433 42.7005 15.5963 43.0007 15.3915 43.5027C14.8809 43.7414 14.8809 43.7414 14.2429 43.9487C12.8913 44.6173 11.579 45.3322 10.3376 46.1791C10.6156 46.753 10.6156 46.753 11.0268 47.2943C11.9193 47.2943 12.0986 47.2709 12.8071 46.8552C12.9658 46.7646 13.1246 46.674 13.2881 46.5807C13.5333 46.4371 13.5333 46.4371 13.7834 46.2906C14.1078 46.1007 14.4332 45.9124 14.7598 45.7261C14.9748 45.5999 14.9748 45.5999 15.1941 45.4712C15.6212 45.287 15.6212 45.287 16.5401 45.287C16.6402 45.5187 16.7403 45.7504 16.8434 45.9892C18.7809 50.4197 21.3527 54.9122 26.0961 56.9136C26.7341 57.1382 27.3555 57.24 28.0263 57.3309C27.9505 57.5517 27.8747 57.7725 27.7966 58C22.0906 57.4847 16.2175 55.8316 11.7159 52.2011C11.7159 52.0539 11.7159 51.9067 11.7159 51.755C11.5853 51.7012 11.4547 51.6475 11.3202 51.5921C10.6941 51.2532 10.2763 50.8463 9.77763 50.3471C9.60736 50.1777 9.43709 50.0084 9.26165 49.8339C9.08605 49.6583 8.91044 49.4826 8.72952 49.3016C8.54296 49.1268 8.3564 48.952 8.16418 48.7719C7.51094 48.1162 6.95139 47.424 6.3892 46.6949C5.651 45.7317 5.651 45.7317 4.82421 44.8409C1.84196 39.5522 0.241109 34.1647 0 28.1132C0.113713 27.8924 0.113713 27.8924 0.229724 27.6671C0.245882 27.2492 0.24909 26.8307 0.244082 26.4126C0.240973 26.077 0.240973 26.077 0.2378 25.7347C0.235135 25.5628 0.23247 25.3909 0.229724 25.2137C0.381342 25.2137 0.53296 25.2137 0.689172 25.2137C0.682361 24.9912 0.675551 24.7687 0.668533 24.5394C0.764504 20.4153 2.91403 16.2027 5.05393 12.7237C5.20555 12.7237 5.35717 12.7237 5.51338 12.7237C5.61999 12.4615 5.61999 12.4615 5.72875 12.194C5.97283 11.6086 5.97283 11.6086 6.20255 11.1625C6.35417 11.1625 6.50579 11.1625 6.662 11.1625C6.71323 11.0423 6.76446 10.9221 6.81724 10.7983C7.22027 10.0988 7.75367 9.54247 8.31314 8.96C8.4826 8.78192 8.4826 8.78192 8.65549 8.60024C9.47309 7.75117 10.3266 6.98924 11.2565 6.25569C11.4216 6.09044 11.4216 6.09044 11.59 5.92185C12.2568 5.29331 13.0788 4.8685 13.8696 4.40171C14.0545 4.29245 14.2394 4.1832 14.4299 4.07064C19.4869 1.12587 19.4869 1.12587 21.8238 1.12587C21.8996 0.905063 21.9754 0.684258 22.0535 0.456761C22.0535 0.603965 22.0535 0.751169 22.0535 0.902833C22.336 0.838431 22.6185 0.77403 22.9096 0.707677C23.2847 0.623962 23.6598 0.540328 24.0349 0.456761C24.2206 0.41421 24.4062 0.371659 24.5975 0.327819C25.6078 0.104531 26.5229 -0.0417925 27.5669 0.0106897Z" fill="var(--fill-0, #003399)"/>
<path id="Vector_3" d="M28.2561 2.91016C28.2947 4.61311 28.3314 6.3161 28.3668 8.01913C28.3791 8.59872 28.3918 9.17831 28.405 9.75789C28.4238 10.59 28.441 11.422 28.458 12.2541C28.4642 12.5141 28.4704 12.7741 28.4768 13.042C28.4814 13.2831 28.486 13.5242 28.4908 13.7725C28.4954 13.985 28.5 14.1975 28.5047 14.4164C28.4858 14.9541 28.4858 14.9541 28.2561 15.6232C26.1833 15.5135 24.1173 15.3998 22.0535 15.1771C22.0535 15.0299 22.0535 14.8827 22.0535 14.7311C21.7195 14.6966 21.7195 14.6966 21.3787 14.6614C20.677 14.561 20.006 14.4098 19.3255 14.2153C19.1508 14.1655 18.9761 14.1158 18.7961 14.0646C18.3779 13.8389 18.3779 13.8389 18.2038 13.3693C18.1855 13.2299 18.1671 13.0904 18.1482 12.9468C18.2998 12.9468 18.4514 12.9468 18.6076 12.9468C18.6929 12.6662 18.7782 12.3856 18.8661 12.0964C20.0773 8.6013 22.6315 4.96111 26.0306 3.21683C26.913 2.7935 27.3209 2.63442 28.2561 2.91016Z" fill="var(--fill-0, #003399)"/>
<path id="Vector_4" d="M30.3233 2.46404C30.8636 2.59756 31.3998 2.74713 31.9314 2.91012C32.0072 3.05732 32.083 3.20452 32.1611 3.35619C32.3329 3.42116 32.5046 3.48614 32.6816 3.55309C35.7056 4.75265 38.0184 8.55126 39.3409 11.3193C39.7351 12.2313 39.9717 12.8351 39.9717 13.8389C38.0462 14.4832 36.1396 15.0309 34.1281 15.3583C33.9628 15.3858 33.7974 15.4134 33.6271 15.4418C32.4397 15.6221 31.295 15.645 30.0936 15.6232C29.8223 14.6799 29.8297 13.7662 29.8351 12.7934C29.8358 12.5962 29.8364 12.3991 29.837 12.1959C29.8509 10.1595 29.9058 8.12397 29.9644 6.08838C29.9689 5.92151 29.9733 5.75464 29.978 5.58271C29.9911 5.10651 30.0057 4.63038 30.0209 4.15424C30.0335 3.73818 30.0335 3.73818 30.0464 3.31372C30.0936 2.68708 30.0936 2.68708 30.3233 2.46404Z" fill="var(--fill-0, #003399)"/>
<path id="Vector_5" d="M28.0263 42.3874C28.6216 43.6952 28.5231 44.9469 28.4804 46.3445C28.4718 46.7204 28.4718 46.7204 28.463 47.1039C28.4441 47.9015 28.4219 48.6991 28.3996 49.4966C28.3862 50.0385 28.3731 50.5804 28.3601 51.1224C28.328 52.4484 28.2931 53.7744 28.2561 55.1004C27.2313 55.3856 26.7449 55.1598 25.7982 54.7206C24.9808 54.2732 24.3386 53.7174 23.6616 53.0931C23.5357 52.9806 23.4098 52.8681 23.28 52.7522C22.2281 51.7805 21.4793 50.7508 20.7469 49.5385C20.6414 49.369 20.5358 49.1995 20.427 49.0249C19.4597 47.456 18.6069 45.953 18.1482 44.1717C18.6601 44.0271 19.1723 43.8831 19.6845 43.7395C19.9696 43.6593 20.2548 43.5791 20.5486 43.4965C21.9144 43.1332 23.2985 42.925 24.6953 42.708C24.8887 42.6771 25.0821 42.6462 25.2813 42.6143C26.2047 42.471 27.0876 42.3444 28.0263 42.3874Z" fill="var(--fill-0, #003399)"/>
<path id="Vector_6" d="M30.0937 42.3876C32.0252 42.4866 33.9163 42.6036 35.8081 43.0148C35.9922 43.0534 36.1764 43.092 36.3661 43.1318C37.6528 43.4145 38.8009 43.7943 39.9719 44.3949C39.83 45.48 39.3509 46.3382 38.8376 47.2943C38.6724 47.6055 38.5075 47.9168 38.3431 48.2283C38.2659 48.3747 38.1886 48.5211 38.109 48.6719C37.9375 49.0127 37.7888 49.3642 37.6459 49.7172C37.4178 50.2581 37.1014 50.5648 36.6633 50.9579C36.1904 51.4103 35.7773 51.9041 35.3487 52.3963C34.2936 53.5443 33.1246 54.4167 31.7018 55.1006C31.4744 55.1006 31.2469 55.1006 31.0126 55.1006C30.9368 55.2478 30.861 55.395 30.7829 55.5467C30.5555 55.4731 30.328 55.3995 30.0937 55.3236C29.8555 54.6298 29.8436 54.1785 29.859 53.4525C29.8636 53.207 29.8682 52.9614 29.873 52.7084C29.8792 52.4436 29.8854 52.1787 29.8918 51.9058C29.8972 51.6345 29.9027 51.3631 29.9083 51.0836C29.9259 50.2154 29.9452 49.3473 29.9645 48.4792C29.9767 47.8913 29.9888 47.3034 30.0008 46.7154C30.0305 45.2728 30.0616 43.8302 30.0937 42.3876Z" fill="var(--fill-0, #003399)"/>
<path id="Vector_7" d="M33.3099 56.4386C33.4615 56.6594 33.6131 56.8802 33.7693 57.1077C33.9968 57.2549 34.2242 57.4021 34.4585 57.5538C32.4117 57.7746 32.4117 57.7746 30.3235 57.9999C30.3993 57.7791 30.4751 57.5582 30.5532 57.3307C31.1787 57.0703 31.1787 57.0703 31.9459 56.8429C32.1997 56.7661 32.4535 56.6893 32.715 56.6102C32.9113 56.5536 33.1076 56.497 33.3099 56.4386Z" fill="var(--fill-0, #003399)"/>
<path id="Vector_8" d="M30.3235 0.23379C30.7686 0.227761 31.2137 0.223439 31.6588 0.219851C31.9066 0.217263 32.1545 0.214676 32.4098 0.21201C33.0802 0.23379 33.0802 0.23379 33.7693 0.456826C33.7693 0.824835 33.7693 1.19284 33.7693 1.57201C33.6168 1.52629 33.4643 1.48058 33.3072 1.43348C33.1044 1.37339 32.9015 1.3133 32.6925 1.25139C32.4926 1.19188 32.2927 1.13236 32.0868 1.07105C31.5019 0.911051 30.9207 0.787468 30.3235 0.679862C30.3235 0.532658 30.3235 0.385455 30.3235 0.23379Z" fill="var(--fill-0, #003399)"/>
<path id="Vector_9" d="M27.5669 0.0107332C27.6427 0.231539 27.7186 0.452344 27.7967 0.679841C26.887 0.900646 25.9772 1.12145 25.04 1.34895C25.04 1.12814 25.04 0.907337 25.04 0.679841C24.8125 0.606239 24.5851 0.532637 24.3508 0.456805C25.4632 0.158865 26.4032 -0.0457575 27.5669 0.0107332Z" fill="var(--fill-0, #003399)"/>
<path id="Vector_10" d="M25.499 56.8848C26.3329 57.032 27.1668 57.1792 28.026 57.3309C27.9502 57.5517 27.8744 57.7725 27.7963 58C26.9624 57.9264 26.1285 57.8528 25.2693 57.7769C25.3451 57.4825 25.4209 57.1881 25.499 56.8848Z" fill="var(--fill-0, #003399)"/>
<path id="Vector_11" d="M13.7834 36.8115C13.8592 36.8115 13.9351 36.8115 14.0132 36.8115C14.5406 38.9103 14.5406 38.9103 14.4726 39.934C14.3968 39.6396 14.321 39.3452 14.2429 39.0418C14.0155 39.1154 13.788 39.189 13.5537 39.2649C13.6295 38.4553 13.7053 37.6456 13.7834 36.8115Z" fill="var(--fill-0, #003399)"/>
<path id="Vector_12" d="M15.851 24.7676C15.9268 24.7676 16.0026 24.7676 16.0807 24.7676C16.1525 25.5064 16.1525 25.5064 16.0807 26.3289C15.5351 26.7749 15.5351 26.7749 14.9321 26.998C14.7805 26.9244 14.6289 26.8508 14.4727 26.7749C14.629 26.6369 14.629 26.6369 14.7885 26.4961C15.1784 26.0885 15.3867 25.7181 15.6213 25.2137C15.6971 25.0665 15.7729 24.9193 15.851 24.7676Z" fill="var(--fill-0, #003399)"/>
<path id="Vector_13" d="M38.8234 16.2923C38.7476 16.5867 38.6718 16.8811 38.5937 17.1844C37.9332 17.2123 37.9332 17.2123 37.2153 17.1844C37.0637 17.0372 36.9121 16.89 36.7559 16.7383C38.0481 16.2923 38.0481 16.2923 38.8234 16.2923Z" fill="var(--fill-0, #003399)"/>
<path id="Vector_14" d="M40.4314 36.5885C41.1934 37.575 41.1906 37.8641 41.1206 39.0419C40.8931 39.0419 40.6657 39.0419 40.4314 39.0419C40.4314 38.2323 40.4314 37.4227 40.4314 36.5885Z" fill="var(--fill-0, #003399)"/>
<path id="Vector_15" d="M47.0935 10.2704C47.2451 10.2704 47.3967 10.2704 47.553 10.2704C47.553 10.4176 47.553 10.5648 47.553 10.7164C47.7804 10.7164 48.0078 10.7164 48.2421 10.7164C48.4001 11.2322 48.4001 11.2322 48.4719 11.8316C48.1416 12.2359 48.1416 12.2359 47.7827 12.5007C47.6311 12.4271 47.4794 12.3535 47.3232 12.2777C47.4748 11.9833 47.6265 11.6889 47.7827 11.3856C47.6121 11.2338 47.6121 11.2338 47.4381 11.0789C47.0935 10.7164 47.0935 10.7164 47.0935 10.2704Z" fill="var(--fill-0, #003399)"/>
<path id="Vector_16" d="M19.0671 28.1132C19.3782 28.7173 19.3118 29.2304 19.2968 29.8975C18.9936 29.7503 18.6904 29.6031 18.3779 29.4514C18.3779 29.157 18.3779 28.8626 18.3779 28.5592C18.6054 28.412 18.8328 28.2648 19.0671 28.1132Z" fill="var(--fill-0, #003399)"/>
<path id="Vector_17" d="M22.5131 2.46404C22.6647 2.61125 22.8163 2.75845 22.9726 2.91012C22.4413 3.46771 22.4413 3.46771 21.8239 4.0253C21.5965 4.0253 21.3691 4.0253 21.1348 4.0253C21.5896 3.51008 22.0445 2.99487 22.5131 2.46404Z" fill="var(--fill-0, #003399)"/>
<path id="Vector_18" d="M27.7965 42.6104C27.4089 42.9589 27.4089 42.9589 26.8776 43.2795C26.2459 43.2098 26.2459 43.2098 25.729 43.0565C25.729 42.9093 25.729 42.7621 25.729 42.6104C26.5051 42.4221 27.0326 42.3632 27.7965 42.6104Z" fill="var(--fill-0, #003399)"/>
<path id="Vector_19" d="M20.6753 30.5666C21.3645 30.7897 21.3645 30.7897 21.5942 31.2357C21.8216 31.3094 22.049 31.383 22.2834 31.4588C22.2076 31.6796 22.1317 31.9004 22.0536 32.1279C21.3645 31.7236 21.3645 31.7236 20.6753 31.2357C20.6753 31.0149 20.6753 30.7941 20.6753 30.5666Z" fill="var(--fill-0, #003399)"/>
<path id="Vector_20" d="M28.2563 28.3363C28.5145 29.0732 28.462 29.4627 28.1558 30.1763C28.0898 30.3339 28.0237 30.4914 27.9557 30.6537C27.9033 30.7722 27.8509 30.8906 27.7969 31.0127C27.5671 30.3436 27.5671 30.3436 27.5671 29.4514C27.7188 29.4514 27.8704 29.4514 28.0266 29.4514C28.1024 29.0834 28.1782 28.7154 28.2563 28.3363Z" fill="var(--fill-0, #003399)"/>
<path id="Vector_21" d="M16.7698 16.7384C16.9214 16.7384 17.073 16.7384 17.2292 16.7384C17.3728 17.2542 17.3728 17.2542 17.4589 17.8536C16.9995 18.5227 16.9995 18.5227 16.54 19.1918C16.6158 18.3822 16.6917 17.5726 16.7698 16.7384Z" fill="var(--fill-0, #003399)"/>
<path id="Vector_22" d="M45.715 51.5319C45.9425 51.6055 46.1699 51.6791 46.4042 51.755C46.4042 51.9022 46.4042 52.0494 46.4042 52.201C45.9494 52.4218 45.4945 52.6426 45.0259 52.8701C44.9501 52.7229 44.8742 52.5757 44.7961 52.4241C44.9478 52.4241 45.0994 52.4241 45.2556 52.4241C45.2556 52.2769 45.2556 52.1297 45.2556 51.978C45.4072 51.978 45.5588 51.978 45.715 51.978C45.715 51.8308 45.715 51.6836 45.715 51.5319Z" fill="var(--fill-0, #003399)"/>
<path id="Vector_23" d="M33.5395 41.2724C33.6153 41.4196 33.6912 41.5668 33.7693 41.7184C33.6176 41.6448 33.466 41.5712 33.3098 41.4954C33.3856 41.4218 33.4614 41.3482 33.5395 41.2724Z" fill="var(--fill-0, #003399)"/>
<path id="Vector_24" d="M35.3777 57.7769C35.8371 57.9999 35.8371 57.9999 35.8371 57.9999L35.3777 57.7769Z" fill="var(--fill-0, #003399)"/>
<path id="Vector_25" d="M21.3645 32.7969C21.824 33.0199 21.824 33.0199 21.824 33.0199L21.3645 32.7969Z" fill="var(--fill-0, #003399)"/>
<path id="Vector_26" d="M29.6345 26.329C30.094 26.552 30.094 26.552 30.094 26.552L29.6345 26.329Z" fill="var(--fill-0, #003399)"/>
<path id="Vector_27" d="M36.7559 25.6597C37.2153 25.8827 37.2153 25.8827 37.2153 25.8827L36.7559 25.6597Z" fill="var(--fill-0, #003399)"/>
<path id="Vector_28" d="M20.6753 25.6597C21.1347 25.8827 21.1347 25.8827 21.1347 25.8827L20.6753 25.6597Z" fill="var(--fill-0, #003399)"/>
<path id="Vector_29" d="M31.4722 21.8682C31.9316 22.0912 31.9316 22.0912 31.9316 22.0912L31.4722 21.8682Z" fill="var(--fill-0, #003399)"/>
<path id="Vector_30" d="M21.1348 15.8462C21.5942 16.0692 21.5942 16.0692 21.5942 16.0692L21.1348 15.8462Z" fill="var(--fill-0, #003399)"/>
<path id="Vector_31" d="M40.2017 13.3929C40.6611 13.6159 40.6611 13.6159 40.6611 13.6159L40.2017 13.3929Z" fill="var(--fill-0, #003399)"/>
</g>
</svg>
