<svg preserveAspectRatio="none" width="100%" height="100%" overflow="visible" style="display: block;" viewBox="0 0 58.0004 58" fill="none" xmlns="http://www.w3.org/2000/svg">
<g id="webdesign">
<path id="Vector" d="M28.6769 0.00938054C28.9105 0.0246073 28.9105 0.0246073 29.1489 0.0401417C29.6468 0.0728693 30.1446 0.107327 30.6425 0.141826C30.9798 0.164302 31.3172 0.186666 31.6545 0.208914C32.482 0.263731 33.3094 0.3201 34.1367 0.377283C34.1367 0.523544 34.1367 0.669805 34.1367 0.820498C34.6028 0.856567 35.0689 0.892636 35.535 0.928705C40.2407 1.75325 44.5388 4.64507 47.8945 7.82028C48.1886 8.09697 48.4881 8.36805 48.7885 8.63821C53.3166 12.8126 55.9676 18.8207 56.8636 24.7541C56.8935 24.9409 56.9234 25.1277 56.9542 25.3202C57.4128 28.813 57.2664 32.6906 56.2706 36.0851C56.1322 36.517 56.1322 36.517 56.4091 36.9425C56.2591 36.9425 56.1091 36.9425 55.9546 36.9425C55.9291 37.0696 55.9036 37.1967 55.8773 37.3277C55.1122 40.5413 53.4175 43.6154 51.4092 46.25C51.2727 46.4323 51.1361 46.6145 50.9955 46.8023C47.5605 51.1888 41.8786 55.8902 36.0969 56.7841C35.9001 56.8181 35.7032 56.8521 35.5003 56.8871C35.4253 57.0334 35.3503 57.1797 35.2731 57.3304C35.1981 57.2572 35.1231 57.1841 35.0458 57.1088C34.6664 57.1171 34.2873 57.1429 33.9095 57.178C33.7032 57.1954 33.497 57.2129 33.2845 57.2308C33.0313 57.2801 33.0313 57.2801 32.7731 57.3304C32.6981 57.4766 32.6231 57.6229 32.5458 57.7736C31.6463 57.8171 30.7467 57.8579 29.847 57.8982C29.5907 57.9107 29.3343 57.9231 29.0702 57.9359C28.8256 57.9466 28.581 57.9573 28.3289 57.9683C28.1028 57.9788 27.8767 57.9892 27.6437 58C27.0914 57.9952 27.0914 57.9952 26.6368 57.7736C26.1122 57.7024 25.5864 57.6391 25.0602 57.5797C23.5721 57.402 22.1615 57.1015 20.7278 56.6655C20.6528 56.8118 20.5779 56.9581 20.5006 57.1088C20.5006 56.8894 20.5006 56.67 20.5006 56.4439C20.338 56.4145 20.1754 56.3851 20.0079 56.3548C19.3774 56.225 18.7727 56.0602 18.1569 55.8761C17.8558 55.7865 17.8558 55.7865 17.5487 55.6951C17.3224 55.627 17.3224 55.627 17.0915 55.5575C17.0915 55.4112 17.0915 55.265 17.0915 55.1143C16.902 55.0614 16.7124 55.0086 16.5172 54.9541C15.6012 54.6256 14.832 54.1936 14.0092 53.6877C13.8515 53.5912 13.6938 53.4948 13.5314 53.3954C11.6217 52.1987 9.75865 50.7726 8.22804 49.1309C8.22804 48.9846 8.22804 48.8384 8.22804 48.6877C8.07804 48.6877 7.92805 48.6877 7.7735 48.6877C7.32664 48.1655 6.90792 47.6419 6.49512 47.0949C6.31307 46.8557 6.31307 46.8557 6.12736 46.6117C3.22812 42.7571 3.22812 42.7571 3.22812 41.8179C3.07812 41.7447 2.92813 41.6716 2.77358 41.5962C2.60724 41.1581 2.45933 40.7133 2.31904 40.2666C2.21406 39.9762 2.10775 39.6862 2.00033 39.3966C-0.12225 33.5395 -0.80433 26.9695 1.1827 20.9868C1.26473 20.7165 1.34676 20.4463 1.43127 20.1679C3.68674 13.0499 8.77582 6.83269 15.5007 3.25818C18.8378 1.55 22.4646 0.418274 26.2391 0.19463C28.3532 -0.012433 28.3532 -0.0124329 28.6769 0.00938054ZM25.4437 4.17231C25.2785 4.25972 25.1132 4.34714 24.943 4.4372C23.5113 5.35789 22.4712 6.41358 21.5233 7.80113C21.4171 7.95399 21.311 8.10686 21.2016 8.26436C19.4976 10.6021 19.4976 10.6021 18.6824 13.2305C21.5627 14.0545 24.3289 14.5457 27.3187 14.7818C27.3243 13.6668 27.3284 12.5518 27.3311 11.4368C27.3323 11.0588 27.3338 10.6808 27.3358 10.3028C27.3471 8.0894 27.3176 5.90606 27.0914 3.70139C26.3455 3.70139 26.0836 3.82543 25.4437 4.17231ZM30.0459 3.70139C30.0459 7.28478 30.0459 10.8682 30.0459 14.5602C31.8683 14.5602 33.301 14.5353 35.0174 14.1446C35.1996 14.1061 35.3818 14.0675 35.5696 14.0278C36.5537 13.8147 37.504 13.5614 38.4548 13.2305C36.8749 9.2263 34.8055 5.6234 30.7277 3.70139C30.5027 3.70139 30.2777 3.70139 30.0459 3.70139ZM18.9532 5.18166C18.7834 5.25965 18.6136 5.33763 18.4387 5.41798C18.2613 5.50054 18.084 5.5831 17.9012 5.66816C17.7247 5.749 17.5482 5.82984 17.3663 5.91314C16.6301 6.25322 15.9533 6.58351 15.2734 7.0255C15.2734 7.17176 15.2734 7.31802 15.2734 7.46872C15.0906 7.50528 14.9078 7.54185 14.7194 7.57952C13.5747 8.0495 12.7113 8.80393 11.8643 9.68479C11.8643 9.83105 11.8643 9.97731 11.8643 10.128C12.2393 10.2011 12.6143 10.2743 13.0007 10.3496C13.0007 10.4959 13.0007 10.6421 13.0007 10.7928C13.4452 11.0155 13.8904 11.2369 14.3359 11.4576C14.5837 11.5811 14.8316 11.7045 15.087 11.8316C15.6788 12.1536 15.6788 12.1536 16.1825 12.1225C16.2572 11.9345 16.3319 11.7465 16.4088 11.5529C17.1504 9.76958 18.0245 8.1914 19.1254 6.59527C19.5283 6.00943 19.9074 5.41765 20.2733 4.80943C19.7298 4.80943 19.4439 4.95567 18.9532 5.18166ZM37.0912 4.80943C37.2412 5.17508 37.3912 5.54073 37.5458 5.91747C37.6958 5.91747 37.8458 5.91747 38.0003 5.91747C38.0276 6.04491 38.0549 6.17235 38.083 6.30366C38.2355 6.83117 38.4458 7.24029 38.7229 7.71629C38.8217 7.88741 38.9204 8.05852 39.0221 8.23482C39.1255 8.41165 39.229 8.58847 39.3355 8.77066C39.9776 9.87674 40.6126 10.9789 41.1821 12.1225C42.2004 11.8247 43.0645 11.4285 43.9803 10.9036C44.2185 10.7688 44.4567 10.634 44.7021 10.495C45.2927 10.1819 45.2927 10.1819 45.5002 9.68479C45.2752 9.68479 45.0502 9.68479 44.8184 9.68479C44.7441 9.49454 44.7441 9.49454 44.6683 9.30044C44.2649 8.63529 43.7702 8.30552 43.1281 7.85653C42.908 7.69998 42.688 7.54344 42.4613 7.38215C41.8837 6.96765 41.8837 6.96765 41.1821 7.0255C41.1821 6.87924 41.1821 6.73298 41.1821 6.58229C40.9571 6.58229 40.7321 6.58229 40.5003 6.58229C40.5003 6.43603 40.5003 6.28977 40.5003 6.13907C40.0627 5.91053 39.6632 5.71282 39.1793 5.59891C38.446 5.41505 37.7834 5.10794 37.0912 4.80943ZM9.59166 11.9009C7.89979 13.959 6.60906 16.1494 5.50081 18.5491C5.39095 18.783 5.28109 19.017 5.1679 19.2581C4.54084 20.7095 4.1624 22.1775 3.83891 23.7153C3.79987 23.9006 3.76083 24.086 3.72061 24.2769C3.49072 25.453 3.45539 26.3921 3.45539 27.635C4.65537 27.635 5.85535 27.635 7.0917 27.635C7.08694 27.3655 7.08218 27.0961 7.07727 26.8185C7.06079 25.817 7.05037 24.8155 7.04176 23.8139C7.03719 23.3808 7.03099 22.9477 7.02312 22.5146C7.01207 21.8913 7.00693 21.2682 7.00292 20.6448C6.99823 20.4518 6.99354 20.2588 6.9887 20.0599C6.98836 19.142 7.01209 18.6729 7.52337 17.8779C8.28457 17.1813 8.76695 17.1833 9.79229 17.1493C10.0574 17.14 10.3226 17.1308 10.5957 17.1212C11.0128 17.1081 11.0128 17.1081 11.4382 17.0948C11.718 17.0852 11.9978 17.0756 12.286 17.0658C12.9788 17.0422 13.6715 17.0196 14.3643 16.9978C14.5143 16.2665 14.6643 15.5352 14.8188 14.7818C14.5912 14.6666 14.3636 14.5515 14.1291 14.4329C12.6226 13.6643 11.175 12.9083 9.81893 11.9009C9.74393 11.9009 9.66893 11.9009 9.59166 11.9009ZM47.3183 11.9009C47.1018 12.0371 46.8853 12.1734 46.6623 12.3138C46.3743 12.4947 46.0864 12.6756 45.7985 12.8565C45.6562 12.9461 45.514 13.0357 45.3675 13.1279C43.1793 14.5019 43.1793 14.5019 42.3184 14.7818C42.3884 15.1098 42.4597 15.4375 42.5315 15.7651C42.571 15.9477 42.6106 16.1302 42.6513 16.3183C42.7292 16.771 42.7292 16.771 43.0002 16.9978C43.4081 17.0221 43.8168 17.0324 44.2253 17.0368C44.4758 17.0421 44.7263 17.0474 44.9844 17.0528C45.5141 17.0623 46.0438 17.0692 46.5735 17.0736C48.5055 17.1207 48.5055 17.1207 49.417 17.6306C50.0811 18.4171 50.0832 19.1142 50.1175 20.0995C50.127 20.3653 50.1365 20.6311 50.1463 20.905C50.1553 21.1833 50.1642 21.4617 50.1734 21.7485C50.1832 22.0192 50.193 22.2899 50.2031 22.5687C50.2612 24.2585 50.2822 25.9443 50.2728 27.635C51.4728 27.635 52.6728 27.635 53.9091 27.635C53.5327 24.416 53.1492 21.2555 51.6365 18.3275C51.527 18.0987 51.527 18.0987 51.4154 17.8652C50.8427 16.6924 50.1907 15.5862 49.4774 14.4909C49.3939 14.361 49.3104 14.231 49.2243 14.0971C48.6653 13.253 48.0644 12.5835 47.3183 11.9009ZM17.5461 15.8898C17.4711 16.2554 17.3961 16.6211 17.3188 16.9978C18.8938 16.9978 20.4688 16.9978 22.0915 16.9978C22.0915 16.9247 22.0915 16.8516 22.0915 16.7762C21.462 16.6276 20.8322 16.48 20.2023 16.333C20.0237 16.2907 19.8452 16.2485 19.6612 16.2049C19.4891 16.1649 19.317 16.1249 19.1396 16.0837C18.9813 16.0466 18.823 16.0094 18.66 15.9712C18.1897 15.8688 18.1897 15.8688 17.5461 15.8898ZM37.0486 16.333C36.7931 16.3964 36.7931 16.3964 36.5324 16.4611C36.1124 16.5655 35.6927 16.6707 35.2731 16.7762C35.2731 16.8494 35.2731 16.9225 35.2731 16.9978C36.773 16.9978 38.273 16.9978 39.8185 16.9978C39.7435 16.6322 39.6685 16.2665 39.5912 15.8898C38.704 15.8898 37.9014 16.118 37.0486 16.333ZM9.87574 19.0338C9.53655 19.4321 9.53655 19.4321 9.59166 20.0034C9.77346 20.588 9.77346 20.588 10.3587 20.8621C10.5556 20.9032 10.7524 20.9444 10.9553 20.9868C11.1803 20.8405 11.4053 20.6942 11.6371 20.5435C11.7507 19.8787 11.7507 19.8787 11.6371 19.2139C10.9326 18.7559 10.6077 18.5495 9.87574 19.0338ZM13.9098 18.7707C13.4216 19.4847 13.3884 19.7187 13.4552 20.5435C13.711 20.8441 13.711 20.8441 14.3785 20.779C14.5988 20.7744 14.8191 20.7699 15.0461 20.7652C15.3394 20.263 15.3394 20.263 15.5007 19.6571C15.2756 19.1244 15.2756 19.1244 14.8188 18.7707C14.5189 18.7707 14.2189 18.7707 13.9098 18.7707ZM17.0915 19.2139C16.94 19.7583 16.94 19.7583 17.0915 20.3219C17.6389 20.7347 17.6389 20.7347 18.2279 20.9868C18.5279 20.7674 18.8279 20.548 19.137 20.3219C19.062 19.8832 18.987 19.4444 18.9097 18.9923C17.9601 18.7287 17.9601 18.7287 17.0915 19.2139ZM25.5005 18.9923C25.2448 19.3985 25.2448 19.3985 25.046 19.8787C25.121 20.0981 25.196 20.3175 25.2732 20.5435C26.0403 20.9175 26.9103 20.7998 27.7541 20.8009C27.964 20.802 28.1739 20.8031 28.3902 20.8042C29.0865 20.8074 29.7828 20.8089 30.4791 20.8102C30.9614 20.8114 31.4438 20.8127 31.9261 20.814C32.9379 20.8163 33.9497 20.8176 34.9616 20.8184C36.2609 20.8196 37.5601 20.8249 38.8594 20.8312C39.8556 20.8354 40.8519 20.8365 41.8482 20.8369C42.3273 20.8375 42.8065 20.8393 43.2857 20.8422C43.9545 20.846 44.6232 20.8456 45.292 20.8441C45.5913 20.8472 45.5913 20.8472 45.8967 20.8503C46.5016 20.8541 46.5016 20.8541 47.3183 20.7652C47.8379 20.1661 47.8379 20.1661 47.7019 19.6294C47.5807 19.217 47.5807 19.217 47.3183 18.9923C46.6404 18.9712 45.9677 18.9645 45.2897 18.9671C45.0769 18.9671 44.8641 18.9671 44.6448 18.967C43.9377 18.9672 43.2306 18.9689 42.5235 18.9707C42.0347 18.9711 41.5458 18.9714 41.057 18.9716C39.7676 18.9725 38.4782 18.9746 37.1888 18.9771C35.8742 18.9793 34.5596 18.9804 33.245 18.9815C30.6635 18.9839 28.082 18.9876 25.5005 18.9923ZM9.59166 22.7596C9.58228 25.9956 9.57291 29.2317 9.56325 32.5657C9.55911 33.5874 9.55497 34.609 9.55071 35.6615C9.54919 36.5777 9.54919 36.5777 9.54827 37.4938C9.54758 37.9017 9.54598 38.3096 9.54367 38.7175C9.54035 39.3355 9.53988 39.9535 9.54006 40.5715C9.53842 40.7531 9.53679 40.9347 9.5351 41.1218C9.5302 42.3176 9.5302 42.3176 10.0462 43.3691C10.6854 43.6807 11.2161 43.6201 11.9313 43.6218C12.1539 43.6228 12.1539 43.6228 12.381 43.6238C12.8805 43.6258 13.38 43.6261 13.8795 43.6264C14.2367 43.6274 14.594 43.6286 14.9512 43.6298C15.9232 43.6327 16.8951 43.6341 17.8671 43.6351C18.4739 43.6357 19.0807 43.6366 19.6874 43.6376C21.5844 43.6407 23.4815 43.6428 25.3785 43.6436C27.571 43.6446 29.7635 43.6485 31.956 43.655C33.6491 43.6597 35.3422 43.662 37.0353 43.6623C38.0473 43.6625 39.0593 43.6638 40.0713 43.6678C41.0229 43.6714 41.9744 43.6719 42.9259 43.67C43.2756 43.6698 43.6253 43.6708 43.975 43.6729C44.4515 43.6757 44.9279 43.6745 45.4044 43.6721C45.6713 43.6725 45.9383 43.6728 46.2133 43.6731C46.8593 43.6403 46.8593 43.6403 47.2904 43.3047C47.7415 42.6351 47.6422 41.8488 47.6362 41.0734C47.6368 40.8911 47.6375 40.7088 47.6381 40.521C47.6386 40.135 47.6373 39.749 47.6345 39.3631C47.6309 38.776 47.6345 38.1892 47.6388 37.6021C47.6384 37.2264 47.6375 36.8507 47.6362 36.475C47.6382 36.2139 47.6382 36.2139 47.6403 35.9474C47.6234 34.6368 47.4093 33.5127 46.4474 32.5268C46.2989 32.4254 46.1504 32.324 45.9973 32.2195C45.7772 32.0631 45.7772 32.0631 45.5526 31.9035C44.4537 31.2974 43.4582 31.1195 42.2048 31.1253C41.9587 31.1242 41.7126 31.123 41.4591 31.1218C40.6844 31.1842 40.0751 31.318 39.3639 31.6239C39.2889 31.8433 39.2139 32.0627 39.1366 32.2887C39.4998 32.5492 39.8647 32.8073 40.2304 33.0644C40.4334 33.2083 40.6364 33.3523 40.8456 33.5007C41.3956 33.8982 41.3956 33.8982 42.0911 33.84C42.1661 34.0594 42.2411 34.2788 42.3184 34.5048C42.6353 34.711 42.9583 34.9083 43.2843 35.1004C44.4909 35.9692 44.7729 36.938 45.12 38.3026C45.3871 39.3461 45.7485 40.0656 46.4093 40.9314C45.9547 41.153 45.5002 41.3746 45.0456 41.5962C45.0456 41.7425 45.0456 41.8888 45.0456 42.0395C44.8207 42.0395 44.5957 42.0395 44.3638 42.0395C44.3638 42.1857 44.3638 42.332 44.3638 42.4827C43.8383 42.5519 43.8383 42.5519 43.2275 42.4827C43.1305 42.3156 43.0336 42.1484 42.9336 41.9763C42.3341 41.0465 41.4221 40.6755 40.4577 40.1454C38.9587 38.8705 38.8948 36.5166 38.5774 34.6922C38.5416 34.5027 38.5059 34.3131 38.469 34.1179C38.4389 33.9472 38.4087 33.7765 38.3776 33.6007C38.2472 33.0908 38.2472 33.0908 37.5458 32.732C36.2157 34.4696 35.26 36.2674 35.5003 38.4937C35.746 39.7408 35.746 39.7408 36.1821 40.9314C36.6289 41.1873 36.6289 41.1873 37.0912 41.3746C37.4889 42.0672 37.4889 42.0672 37.773 42.7043C37.1126 42.9828 36.683 43.1475 35.9549 43.1475C35.4188 42.3634 35.4094 41.8619 35.2731 40.9314C35.1595 40.5606 35.0409 40.1913 34.918 39.8234C34.3348 37.9607 34.7216 36.5459 35.2731 34.7264C35.3506 34.4314 35.4271 34.1361 35.5003 33.84C34.8704 34.172 34.4291 34.416 34.0089 34.9896C33.9011 35.1221 33.7933 35.2547 33.6822 35.3912C33.3822 35.3912 33.0822 35.3912 32.7731 35.3912C32.6981 35.0256 32.6231 34.6599 32.5458 34.2832C32.8552 34.2284 32.8552 34.2284 33.1708 34.1724C34.5379 33.7939 35.7836 32.9478 36.864 32.0671C37.0206 31.6111 37.0206 31.6111 37.0912 31.1807C37.7872 30.6821 37.7872 30.6821 38.4548 30.2943C38.5298 30.4405 38.6048 30.5868 38.6821 30.7375C39.2529 30.3486 39.82 29.9549 40.3866 29.5602C40.6305 29.3942 40.6305 29.3942 40.8793 29.2248C41.1101 29.063 41.1101 29.063 41.3454 28.898C41.4882 28.7993 41.6311 28.7007 41.7782 28.599C41.8815 28.5003 41.9847 28.4015 42.0911 28.2998C42.0911 28.0804 42.0911 27.861 42.0911 27.635C42.4661 27.635 42.8411 27.635 43.2275 27.635C43.3025 27.9275 43.3775 28.22 43.4548 28.5214C43.211 28.6128 42.9673 28.7042 42.7161 28.7984C41.9724 29.1059 41.4877 29.4699 40.9548 30.0727C41.0872 30.0598 41.2196 30.047 41.3561 30.0337C43.6075 29.9129 45.363 30.7099 47.0911 32.0671C47.2411 32.0671 47.3911 32.0671 47.5456 32.0671C47.5456 28.9957 47.5456 25.9242 47.5456 22.7596C35.0208 22.7596 22.496 22.7596 9.59166 22.7596ZM3.45539 30.2943C3.41655 31.7025 3.52894 32.9645 3.83891 34.3386C3.8795 34.5216 3.92009 34.7045 3.96192 34.893C4.51495 37.2755 5.46578 39.4431 6.63716 41.5962C6.71216 41.5962 6.78716 41.5962 6.86443 41.5962C6.93943 37.8666 7.01443 34.1369 7.0917 30.2943C5.89172 30.2943 4.69173 30.2943 3.45539 30.2943ZM50.2728 30.2943C50.2728 34.0971 50.2728 37.8998 50.2728 41.8179C51.9918 39.583 52.942 36.7941 53.4546 34.0616C53.5122 33.8036 53.5122 33.8036 53.5709 33.5405C53.6961 32.8785 53.7568 32.2257 53.8097 31.5547C53.8425 31.1387 53.8753 30.7228 53.9091 30.2943C52.7092 30.2943 51.5092 30.2943 50.2728 30.2943ZM41.4093 37.1641C41.5593 37.3104 41.7093 37.4566 41.8639 37.6073C41.8639 37.4611 41.8639 37.3148 41.8639 37.1641C41.7139 37.1641 41.5639 37.1641 41.4093 37.1641ZM12.5604 46.25C12.4266 46.3346 12.2929 46.4191 12.1551 46.5062C11.8288 46.7132 11.5054 46.9244 11.1825 47.1364C12.8081 49.281 15.2117 50.6804 17.5887 51.9287C17.7331 52.0047 17.8775 52.0806 18.0263 52.1589C18.6708 52.4854 19.0819 52.6766 19.8188 52.6766C19.4848 52.0019 19.1098 51.3637 18.7108 50.7237C18.5901 50.528 18.4694 50.3323 18.3451 50.1307C18.145 49.8074 17.9442 49.4846 17.7414 49.1629C17.1741 48.2387 16.7762 47.2866 16.3938 46.2803C16.2021 45.7718 16.2021 45.7718 15.7279 45.3636C14.4173 45.2134 13.6197 45.5479 12.5604 46.25ZM18.9097 45.3636C21.6204 50.8694 21.6204 50.8694 26.6368 54.2279C26.8618 54.2279 27.0868 54.2279 27.3187 54.2279C27.3187 51.3026 27.3187 48.3774 27.3187 45.3636C24.5437 45.3636 21.7687 45.3636 18.9097 45.3636ZM30.0459 45.3636C30.0459 48.2888 30.0459 51.214 30.0459 54.2279C33.9761 52.9504 35.9608 50.1943 37.773 46.6932C37.923 46.2544 38.073 45.8156 38.2276 45.3636C35.5276 45.3636 32.8277 45.3636 30.0459 45.3636ZM41.1821 45.3636C41.0857 45.5887 40.9893 45.8138 40.89 46.0457C39.8385 48.4656 38.6322 50.7346 37.0912 52.8982C39.7139 52.1927 41.9489 50.7981 44.0798 49.1863C44.2153 49.0845 44.3509 48.9826 44.4905 48.8777C45.1551 48.3592 45.6592 47.9271 45.9547 47.1364C45.5477 46.8822 45.1405 46.6284 44.7332 46.3747C44.5064 46.2332 44.2796 46.0918 44.046 45.9462C43.2997 45.4905 42.9316 45.3361 42.0627 45.3497C41.6268 45.3566 41.6268 45.3566 41.1821 45.3636Z" fill="var(--fill-0, #003399)"/>
<path id="Vector_2" d="M43.4545 27.6349C43.5966 28.0504 43.5966 28.0504 43.6818 28.5213C43.1192 29.0699 42.6138 29.1689 41.8637 29.4077C41.6387 29.554 41.4137 29.7003 41.1819 29.851C41.4631 29.8281 41.7443 29.8053 42.0341 29.7817C43.5457 29.777 45.2425 30.3336 46.3753 31.3286C46.4614 31.426 46.5476 31.5235 46.6363 31.6238C46.4863 31.6238 46.3363 31.6238 46.1818 31.6238C46.1818 31.8432 46.1818 32.0626 46.1818 32.2886C46.0224 32.2247 45.863 32.1607 45.6988 32.0947C44.4918 31.6342 43.5127 31.344 42.2046 31.3607C41.9585 31.3621 41.7124 31.3635 41.4588 31.365C40.7445 31.4013 40.0661 31.4949 39.3637 31.6238C39.7039 32.619 40.5234 33.1009 41.4091 33.6183C41.6341 33.6914 41.8591 33.7645 42.0909 33.8399C42.4749 34.2041 42.8529 34.5744 43.2273 34.9479C43.4523 35.1065 43.6773 35.265 43.9091 35.4284C44.7449 36.1008 44.9471 36.8433 45.2017 37.8427C45.473 38.847 45.7162 39.6762 46.409 40.4881C46.409 40.6344 46.409 40.7806 46.409 40.9313C45.6223 41.5961 45.6223 41.5961 45.0454 41.5961C45.0454 41.7424 45.0454 41.8887 45.0454 42.0394C44.8204 42.0394 44.5954 42.0394 44.3636 42.0394C44.3636 42.1856 44.3636 42.3319 44.3636 42.4826C43.8011 42.5923 43.8011 42.5923 43.2273 42.7042C42.5455 41.8732 42.5455 41.8732 42.5455 41.3745C42.3955 41.3288 42.2455 41.2831 42.0909 41.236C41.5071 40.9751 41.0043 40.7094 40.4716 40.3635C40.3211 40.2672 40.1705 40.1709 40.0153 40.0717C38.8882 38.8232 38.7187 36.8524 38.412 35.2665C38.3717 35.0641 38.3314 34.8617 38.2899 34.6532C38.1921 34.1607 38.0955 33.668 38.0001 33.1751C37.7751 33.1751 37.5501 33.1751 37.3183 33.1751C37.094 33.5943 36.8719 34.0147 36.6507 34.4355C36.5268 34.6694 36.4028 34.9034 36.2752 35.1444C35.4456 36.9302 35.7004 38.56 36.1713 40.4093C36.4605 41.0438 36.6817 41.1087 37.3183 41.3745C37.7728 42.0394 37.7728 42.0394 37.7728 42.7042C37.2135 43.1284 36.8598 43.3814 36.1393 43.3413C35.7274 43.1474 35.7274 43.1474 35.2729 42.4826C35.1971 41.9655 35.1213 41.4484 35.0456 40.9313C34.9321 40.5605 34.8134 40.1912 34.6905 39.8233C34.0423 37.7527 34.5909 36.0564 35.2729 34.0615C35.1088 34.2306 34.9447 34.3997 34.7757 34.574C34.2052 35.1056 33.6892 35.4696 33.0002 35.8344C32.9252 35.6881 32.8502 35.5418 32.7729 35.3911C32.6229 35.318 32.4729 35.2449 32.3184 35.1695C32.3743 34.7523 32.3743 34.7523 32.5456 34.2831C32.9513 34.0494 32.9513 34.0494 33.4689 33.8676C34.4598 33.4817 35.2151 32.9824 36.039 32.3267C36.4092 32.067 36.4092 32.067 36.8637 32.067C36.8825 31.8979 36.9012 31.7288 36.9206 31.5546C37.091 30.959 37.091 30.959 37.5029 30.5573C38.0001 30.2942 38.0001 30.2942 38.9092 30.2942C39.4423 29.9914 39.9294 29.6865 40.429 29.3385C40.5639 29.2489 40.6988 29.1594 40.8378 29.0671C41.6645 28.5073 41.6645 28.5073 42.0909 27.6349C42.657 27.3589 42.8661 27.4628 43.4545 27.6349ZM41.4091 37.164C41.5591 37.3103 41.7091 37.4565 41.8637 37.6072C41.8637 37.461 41.8637 37.3147 41.8637 37.164C41.7137 37.164 41.5637 37.164 41.4091 37.164Z" fill="var(--fill-0, #003399)"/>
<path id="Vector_3" d="M21.4097 30.2943C21.3347 32.0494 21.2597 33.8045 21.1825 35.6128C21.0325 35.6128 20.8825 35.6128 20.7279 35.6128C20.6529 35.7591 20.5779 35.9054 20.5007 36.0561C20.5007 35.9098 20.5007 35.7635 20.5007 35.6128C17.4257 35.686 14.3507 35.7591 11.1826 35.8345C11.1826 34.0062 11.1826 32.1779 11.1826 30.2943C12.4565 30.2575 13.7303 30.2215 15.0042 30.1874C15.4374 30.1756 15.8705 30.1633 16.3037 30.1506C16.927 30.1324 17.5504 30.1158 18.1738 30.0995C18.4633 30.0905 18.4633 30.0905 18.7586 30.0813C19.0315 30.0747 19.0315 30.0747 19.3099 30.0678C19.5483 30.0612 19.5483 30.0612 19.7916 30.0544C20.2734 30.0727 20.2734 30.0727 21.4097 30.2943Z" fill="var(--fill-0, #003399)"/>
<path id="Vector_4" d="M12.7972 23.4195C12.9837 23.4239 13.1702 23.4284 13.3624 23.4329C13.6628 23.4419 13.6628 23.4419 13.9693 23.4511C14.1752 23.4563 14.381 23.4616 14.5931 23.467C15.2508 23.4839 15.9084 23.5026 16.5661 23.5212C17.0119 23.533 17.4577 23.5447 17.9035 23.5563C18.9965 23.5847 20.0895 23.6153 21.1825 23.6459C21.1825 25.401 21.1825 27.1561 21.1825 28.9645C17.8825 28.9645 14.5826 28.9645 11.1826 28.9645C11.1826 27.2093 11.1826 25.4542 11.1826 23.6459C11.8143 23.4406 12.1502 23.402 12.7972 23.4195Z" fill="var(--fill-0, #003399)"/>
<path id="Vector_5" d="M21.8645 23.4244C29.7394 23.4976 37.6143 23.5707 45.7278 23.646C45.7278 24.3773 45.7278 25.1087 45.7278 25.8621C44.6906 26.0231 43.6957 26.1117 42.6458 26.1124C42.3585 26.1131 42.0713 26.1138 41.7753 26.1145C41.4637 26.1141 41.1521 26.1137 40.8406 26.1132C40.5127 26.1133 40.1848 26.1135 39.8569 26.1138C39.1675 26.1141 38.478 26.1137 37.7886 26.1126C36.9272 26.1114 36.0658 26.1121 35.2044 26.1134C30.7529 26.119 26.3125 26.0399 21.8645 25.8621C21.6592 24.9056 21.6603 24.4199 21.8645 23.4244Z" fill="var(--fill-0, #003399)"/>
<path id="Vector_6" d="M16.1825 36.4992C16.2575 36.6455 16.3325 36.7917 16.4098 36.9424C17.9848 36.9424 19.5598 36.9424 21.1825 36.9424C21.2265 37.7503 21.2689 38.5582 21.3103 39.3662C21.3294 39.7123 21.3294 39.7123 21.3489 40.0653C21.3599 40.2845 21.3709 40.5038 21.3822 40.7296C21.3929 40.9327 21.4036 41.1358 21.4147 41.3451C21.4097 41.8178 21.4097 41.8178 21.1825 42.0394C20.8685 42.0599 20.5534 42.0654 20.2387 42.0645C20.0385 42.0645 19.8383 42.0645 19.6321 42.0645C19.4145 42.0633 19.197 42.0622 18.9728 42.061C18.7512 42.0607 18.5295 42.0604 18.3012 42.0601C17.5902 42.0588 16.8793 42.056 16.1683 42.0532C15.6876 42.0521 15.2069 42.0511 14.7262 42.0502C13.545 42.0479 12.3638 42.0436 11.1826 42.0394C11.1826 40.3574 11.1826 38.6754 11.1826 36.9424C12.8326 36.9424 14.4826 36.9424 16.1825 36.9424C16.1825 36.7961 16.1825 36.6499 16.1825 36.4992Z" fill="var(--fill-0, #003399)"/>
<path id="Vector_7" d="M21.8643 26.7484C27.7892 26.7484 33.7141 26.7484 39.8185 26.7484C39.8185 27.4797 39.8185 28.211 39.8185 28.9645C38.9024 29.1771 38.0478 29.2142 37.1072 29.2148C36.9533 29.2152 36.7995 29.2155 36.6409 29.2159C36.135 29.2169 35.6291 29.2163 35.1231 29.2155C34.7702 29.2157 34.4174 29.2159 34.0645 29.2162C33.3261 29.2165 32.5878 29.216 31.8494 29.215C30.9036 29.2137 29.9577 29.2144 29.0119 29.2158C28.2837 29.2166 27.5555 29.2163 26.8273 29.2157C26.4785 29.2156 26.1297 29.2158 25.781 29.2163C25.2936 29.2169 24.8063 29.216 24.3189 29.2148C24.0417 29.2146 23.7645 29.2144 23.479 29.2142C22.7733 29.1861 22.7733 29.1861 21.8643 28.9645C21.8643 28.2332 21.8643 27.5019 21.8643 26.7484Z" fill="var(--fill-0, #003399)"/>
<path id="Vector_8" d="M43.4545 27.6349C43.5966 28.0504 43.5966 28.0504 43.6818 28.5213C43.1192 29.0699 42.6138 29.1689 41.8637 29.4077C41.6387 29.554 41.4137 29.7003 41.1819 29.851C41.4631 29.8281 41.7443 29.8053 42.0341 29.7817C43.5457 29.777 45.2425 30.3336 46.3753 31.3286C46.4614 31.426 46.5476 31.5235 46.6363 31.6238C46.4863 31.6238 46.3363 31.6238 46.1818 31.6238C46.1818 31.8432 46.1818 32.0626 46.1818 32.2886C46.0224 32.2247 45.863 32.1607 45.6988 32.0947C44.4918 31.6342 43.5127 31.344 42.2046 31.3607C41.9585 31.3621 41.7124 31.3635 41.4588 31.365C40.7445 31.4013 40.0661 31.4949 39.3637 31.6238C39.4387 31.9163 39.5137 32.2089 39.591 32.5102C39.0796 32.8565 39.0796 32.8565 38.4546 33.1751C37.961 33.0842 37.961 33.0842 37.5456 32.9535C36.2092 34.9531 35.3715 36.6698 35.849 39.1169C36.0708 40.0431 36.0708 40.0431 36.4092 40.9313C36.8526 41.1902 36.8526 41.1902 37.3183 41.3745C37.7728 42.0394 37.7728 42.0394 37.7728 42.7042C37.2135 43.1284 36.8598 43.3814 36.1393 43.3413C35.7274 43.1474 35.7274 43.1474 35.2729 42.4826C35.1971 41.9655 35.1213 41.4484 35.0456 40.9313C34.9321 40.5605 34.8134 40.1912 34.6905 39.8233C34.0423 37.7527 34.5909 36.0564 35.2729 34.0615C35.1088 34.2306 34.9447 34.3997 34.7757 34.574C34.2052 35.1056 33.6892 35.4696 33.0002 35.8344C32.9252 35.6881 32.8502 35.5418 32.7729 35.3911C32.6229 35.318 32.4729 35.2449 32.3184 35.1695C32.3743 34.7523 32.3743 34.7523 32.5456 34.2831C32.9513 34.0494 32.9513 34.0494 33.4689 33.8676C34.4598 33.4817 35.2151 32.9824 36.039 32.3267C36.4092 32.067 36.4092 32.067 36.8637 32.067C36.8825 31.8979 36.9012 31.7288 36.9206 31.5546C37.091 30.959 37.091 30.959 37.5029 30.5573C38.0001 30.2942 38.0001 30.2942 38.9092 30.2942C39.4423 29.9914 39.9294 29.6865 40.429 29.3385C40.5639 29.2489 40.6988 29.1594 40.8378 29.0671C41.6645 28.5073 41.6645 28.5073 42.0909 27.6349C42.657 27.3589 42.8661 27.4628 43.4545 27.6349Z" fill="var(--fill-0, #003399)"/>
<path id="Vector_9" d="M21.8643 30.2943C26.2142 30.2943 30.5642 30.2943 35.0459 30.2943C35.0459 31.0256 35.0459 31.7569 35.0459 32.5103C30.696 32.5103 26.346 32.5103 21.8643 32.5103C21.637 32.0671 21.637 32.0671 21.8643 30.2943Z" fill="var(--fill-0, #003399)"/>
<path id="Vector_10" d="M29.2932 36.8178C29.7417 36.8296 30.1902 36.8413 30.6386 36.8528C31.729 36.8812 32.8193 36.9113 33.9096 36.9424C33.9096 37.6737 33.9096 38.405 33.9096 39.1585C32.2308 39.326 30.5826 39.4159 28.8955 39.4078C28.6716 39.4072 28.4478 39.4066 28.2171 39.406C26.7511 39.3969 25.2886 39.3586 23.8246 39.2831C23.6517 39.2745 23.4788 39.2658 23.3007 39.2568C22.1207 39.1868 22.1207 39.1868 21.8644 38.9369C21.8321 38.272 21.8548 37.6078 21.8644 36.9424C24.3302 36.5999 26.813 36.7466 29.2932 36.8178Z" fill="var(--fill-0, #003399)"/>
<path id="Vector_11" d="M34.3645 40.0449C34.5895 40.7031 34.8145 41.3612 35.0463 42.0393C34.3467 42.2667 33.8723 42.2877 33.1397 42.2861C32.8895 42.2861 32.6393 42.2861 32.3815 42.2861C32.1116 42.2849 31.8417 42.2838 31.5636 42.2826C31.2871 42.2823 31.0107 42.282 30.7258 42.2816C29.8412 42.2804 28.9566 42.2776 28.072 42.2748C27.4729 42.2737 26.8738 42.2727 26.2747 42.2718C24.8047 42.2693 23.3347 42.2656 21.8647 42.261C21.6944 41.4492 21.5834 40.8374 21.8647 40.0449C26.0507 39.8033 30.1801 39.8585 34.3645 40.0449Z" fill="var(--fill-0, #003399)"/>
<path id="Vector_12" d="M21.8643 33.3967C25.0142 33.3967 28.1642 33.3967 31.4096 33.3967C31.6368 34.0616 31.6368 34.0616 31.4096 35.6128C28.2596 35.6128 25.1097 35.6128 21.8643 35.6128C21.8643 34.8815 21.8643 34.1502 21.8643 33.3967Z" fill="var(--fill-0, #003399)"/>
<path id="Vector_13" d="M35.0459 41.5961C34.9709 41.8155 34.8959 42.0349 34.8187 42.2609C30.6937 42.1878 26.5688 42.1147 22.3188 42.0393C22.3188 41.9662 22.3188 41.893 22.3188 41.8177C24.0583 41.7861 25.7978 41.7545 27.5373 41.723C28.1294 41.7123 28.7216 41.7015 29.3137 41.6908C30.1633 41.6753 31.0128 41.6599 31.8624 41.6446C32.1285 41.6397 32.3946 41.6349 32.6687 41.6299C32.9144 41.6254 33.1601 41.621 33.4132 41.6164C33.6302 41.6125 33.8472 41.6086 34.0708 41.6045C34.3958 41.5993 34.7209 41.5961 35.0459 41.5961Z" fill="var(--fill-0, #003399)"/>
<path id="Vector_14" d="M34.1365 33.6182C34.2865 33.6914 34.4365 33.7645 34.5911 33.8398C34.4549 34.5831 34.2113 35.0584 33.682 35.6127C33.1848 35.7789 33.1848 35.7789 32.7729 35.8343C32.7729 35.688 32.7729 35.5418 32.7729 35.3911C32.6229 35.318 32.4729 35.2448 32.3184 35.1695C32.3326 34.7678 32.3326 34.7678 32.5456 34.2831C33.3269 33.8814 33.3269 33.8814 34.1365 33.6182Z" fill="var(--fill-0, #003399)"/>
<path id="Vector_15" d="M10.2732 6.80383C10.4232 6.87696 10.5732 6.95009 10.7278 7.02544C10.3903 7.57391 10.3903 7.57391 10.046 8.13347C9.82098 8.06034 9.59598 7.98721 9.36417 7.91187C9.66416 7.54621 9.96416 7.18056 10.2732 6.80383ZM8.90963 8.13347C9.05963 8.27973 9.20962 8.42599 9.36417 8.57669C9.13917 8.57669 8.91417 8.57669 8.68236 8.57669C8.75736 8.43043 8.83236 8.28417 8.90963 8.13347ZM8.00055 9.0199C8.15055 9.16616 8.30055 9.31242 8.45509 9.46312C8.201 9.7599 7.94496 10.0551 7.68806 10.3495C7.54568 10.5141 7.4033 10.6786 7.2566 10.8482C7.12711 10.9761 6.99762 11.1041 6.86421 11.236C6.71421 11.236 6.56421 11.236 6.40967 11.236C6.78864 10.3625 7.37036 9.73142 8.00055 9.0199Z" fill="var(--fill-0, #003399)"/>
<path id="Vector_16" d="M40.2728 29.4077C40.4978 29.4809 40.7228 29.554 40.9547 29.6293C40.8797 29.9219 40.8047 30.2144 40.7274 30.5158C41.0274 30.662 41.3274 30.8083 41.6365 30.959C41.1064 31.2263 40.6146 31.4389 40.0456 31.6238C39.8183 31.1806 39.8183 31.1806 39.8183 30.7374C39.6683 30.518 39.5183 30.2986 39.3638 30.0726C39.7757 29.7263 39.7757 29.7263 40.2728 29.4077Z" fill="var(--fill-0, #003399)"/>
<path id="Vector_17" d="M37.0914 32.5102C37.137 33.3337 37.1259 33.5677 36.6368 34.2831C36.2618 34.2099 35.8868 34.1368 35.5005 34.0615C35.6505 33.9883 35.8005 33.9152 35.955 33.8398C35.955 33.6936 35.955 33.5473 35.955 33.3966C35.805 33.3235 35.655 33.2504 35.5005 33.175C36.3243 32.5102 36.3243 32.5102 37.0914 32.5102Z" fill="var(--fill-0, #003399)"/>
<path id="Vector_18" d="M36.6973 32.3588C36.8274 32.4088 36.9575 32.4588 37.0915 32.5103C36.8665 32.5103 36.6415 32.5103 36.4097 32.5103C36.3347 32.7297 36.2597 32.9491 36.1824 33.1751C36.1074 33.2482 36.0324 33.3214 35.9551 33.3967C35.8801 33.543 35.8051 33.6892 35.7279 33.8399C35.3543 33.9998 34.9755 34.1487 34.5915 34.2831C34.5165 34.0638 34.4415 33.8444 34.3643 33.6183C34.6455 33.3887 34.9303 33.1633 35.2165 32.9397C35.3747 32.8137 35.5329 32.6877 35.6959 32.5579C36.1824 32.2887 36.1824 32.2887 36.6973 32.3588Z" fill="var(--fill-0, #003399)"/>
<path id="Vector_19" d="M45.0456 30.7374C45.5048 30.8708 45.9595 31.0195 46.4092 31.1806C46.4842 31.3269 46.5592 31.4731 46.6365 31.6238C46.4865 31.6238 46.3365 31.6238 46.182 31.6238C46.182 31.8432 46.182 32.0626 46.182 32.2887C45.628 32.1224 45.628 32.1224 45.0456 31.8454C44.8468 31.3884 44.8468 31.3884 44.8184 30.959C44.8934 30.8859 44.9684 30.8127 45.0456 30.7374Z" fill="var(--fill-0, #003399)"/>
<path id="Vector_20" d="M43.4549 27.6349C43.5299 27.9274 43.6049 28.2199 43.6822 28.5213C43.4572 28.6676 43.2322 28.8138 43.0004 28.9645C42.3186 28.5213 42.3186 28.5213 42.1623 28.0504C42.1389 27.9133 42.1155 27.7762 42.0913 27.6349C42.6574 27.3589 42.8665 27.4628 43.4549 27.6349Z" fill="var(--fill-0, #003399)"/>
<path id="Vector_21" d="M35.5005 50.0172C35.6505 50.0903 35.8005 50.1635 35.955 50.2388C35.3553 51.1702 34.7359 51.9156 33.9096 52.6765C33.7596 52.6034 33.6096 52.5302 33.4551 52.4549C33.5837 52.3161 33.7123 52.1772 33.8448 52.0342C34.0949 51.7625 34.0949 51.7625 34.35 51.4854C34.5161 51.3054 34.6822 51.1254 34.8533 50.94C35.28 50.4916 35.28 50.4916 35.5005 50.0172Z" fill="var(--fill-0, #003399)"/>
<path id="Vector_22" d="M35.5002 34.0616C35.8002 34.1348 36.1002 34.2079 36.4092 34.2832C36.2246 34.7126 36.2246 34.7126 35.9547 35.1697C35.7297 35.2428 35.5047 35.3159 35.2729 35.3913C35.1229 35.6107 34.9729 35.83 34.8184 36.0561C34.9315 35.2284 35.0172 34.768 35.5002 34.0616Z" fill="var(--fill-0, #003399)"/>
<path id="Vector_23" d="M12.7735 5.0309C12.8484 5.17716 12.9234 5.32342 13.0007 5.47412C12.463 6.05362 11.8961 6.44697 11.1826 6.80376C11.0326 6.73063 10.8826 6.6575 10.728 6.58215C10.9832 6.3646 11.239 6.14774 11.4951 5.93118C11.7086 5.74993 11.7086 5.74993 11.9265 5.56501C12.3189 5.25251 12.3189 5.25251 12.7735 5.0309Z" fill="var(--fill-0, #003399)"/>
<path id="Vector_24" d="M40.7273 44.9203C41.4773 44.9934 42.2272 45.0666 43 45.1419C43 45.2151 43 45.2882 43 45.3635C42.4 45.3635 41.8 45.3635 41.1818 45.3635C41.1068 45.6561 41.0318 45.9486 40.9545 46.25C40.8045 46.25 40.6545 46.25 40.5 46.25C40.575 45.8112 40.65 45.3724 40.7273 44.9203Z" fill="var(--fill-0, #003399)"/>
<path id="Vector_25" d="M35.0455 41.5961C34.9705 41.8155 34.8955 42.0349 34.8182 42.2609C33.6932 42.1878 32.5683 42.1147 31.4092 42.0393C31.4092 41.9662 31.4092 41.893 31.4092 41.8177C31.93 41.7806 32.4508 41.7437 32.9717 41.7069C33.2617 41.6863 33.5517 41.6658 33.8505 41.6446C34.2483 41.6185 34.6468 41.5961 35.0455 41.5961Z" fill="var(--fill-0, #003399)"/>
<path id="Vector_26" d="M39.8187 30.0726C39.9687 30.292 40.1187 30.5114 40.2733 30.7375C40.1233 31.03 39.9733 31.3225 39.8187 31.6239C39.6687 31.6239 39.5187 31.6239 39.3642 31.6239C39.3642 31.4776 39.3642 31.3314 39.3642 31.1807C39.2142 31.1807 39.0642 31.1807 38.9097 31.1807C38.9097 31.0344 38.9097 30.8881 38.9097 30.7375C39.0597 30.7375 39.2097 30.7375 39.3642 30.7375C39.4392 30.5912 39.5142 30.4449 39.5915 30.2942C39.6665 30.2211 39.7415 30.148 39.8187 30.0726Z" fill="var(--fill-0, #003399)"/>
<path id="Vector_27" d="M17.5459 2.59333C17.5459 2.73959 17.5459 2.88585 17.5459 3.03655C17.3959 3.03655 17.2459 3.03655 17.0914 3.03655C17.0914 3.18281 17.0914 3.32907 17.0914 3.47976C16.6414 3.47976 16.1914 3.47976 15.7278 3.47976C15.6528 3.3335 15.5778 3.18724 15.5005 3.03655C16.7789 2.59333 16.7789 2.59333 17.5459 2.59333Z" fill="var(--fill-0, #003399)"/>
<path id="Vector_28" d="M1.18257 21.4299C1.42404 21.8454 1.42404 21.8454 1.6371 22.3163C1.56211 22.4626 1.48711 22.6088 1.40983 22.7595C1.25984 22.7595 1.10984 22.7595 0.955297 22.7595C0.955297 23.1252 0.955297 23.4908 0.955297 23.8676C0.880298 23.8676 0.805299 23.8676 0.728027 23.8676C0.759943 23.5027 0.793366 23.138 0.827458 22.7734C0.845914 22.5703 0.864371 22.3672 0.883387 22.1579C0.955297 21.6515 0.955297 21.6515 1.18257 21.4299Z" fill="var(--fill-0, #003399)"/>
<path id="Vector_29" d="M18.9096 6.5822C19.0596 6.65533 19.2096 6.72846 19.3641 6.8038C19.3215 7.20547 19.3215 7.20547 19.1368 7.69023C18.5545 8.07805 18.5545 8.07805 18.0005 8.35506C18.2561 7.69645 18.5057 7.17291 18.9096 6.5822Z" fill="var(--fill-0, #003399)"/>
<path id="Vector_30" d="M25.0461 6.36069C25.1211 6.50695 25.1961 6.65321 25.2734 6.80391C25.1234 6.73078 24.9734 6.65765 24.8188 6.5823C24.8938 6.50917 24.9688 6.43604 25.0461 6.36069Z" fill="var(--fill-0, #003399)"/>
<path id="Vector_31" d="M43.9092 47.8011C44.3637 48.0228 44.3637 48.0228 44.3637 48.0228L43.9092 47.8011Z" fill="var(--fill-0, #003399)"/>
<path id="Vector_32" d="M2.54639 43.369C3.00093 43.5906 3.00093 43.5906 3.00093 43.5906L2.54639 43.369Z" fill="var(--fill-0, #003399)"/>
<path id="Vector_33" d="M40.9551 41.8177C41.4096 42.0393 41.4096 42.0393 41.4096 42.0393L40.9551 41.8177Z" fill="var(--fill-0, #003399)"/>
<path id="Vector_34" d="M21.8643 32.9536C22.3188 33.1752 22.3188 33.1752 22.3188 33.1752L21.8643 32.9536Z" fill="var(--fill-0, #003399)"/>
<path id="Vector_35" d="M36.8638 30.2943C37.3183 30.5159 37.3183 30.5159 37.3183 30.5159L36.8638 30.2943Z" fill="var(--fill-0, #003399)"/>
<path id="Vector_36" d="M57.5459 28.9645C58.0004 29.1861 58.0004 29.1861 58.0004 29.1861L57.5459 28.9645Z" fill="var(--fill-0, #003399)"/>
<path id="Vector_37" d="M31.6367 26.3053C32.0913 26.5269 32.0913 26.5269 32.0913 26.5269L31.6367 26.3053Z" fill="var(--fill-0, #003399)"/>
<path id="Vector_38" d="M8.45557 13.6737C8.9101 13.8953 8.9101 13.8953 8.9101 13.8953L8.45557 13.6737Z" fill="var(--fill-0, #003399)"/>
<path id="Vector_39" d="M40.0459 1.7068C40.5004 1.92841 40.5004 1.92841 40.5004 1.92841L40.0459 1.7068Z" fill="var(--fill-0, #003399)"/>
</g>
</svg>
